<?xml version="1.0" encoding="UTF-8"?>
<svg width="360px" height="136px" viewBox="0 0 360 136" version="1.1" xmlns="http://www.w3.org/2000/svg" xmlns:xlink="http://www.w3.org/1999/xlink">
    <!-- Generator: Sketch 49.2 (51160) - http://www.bohemiancoding.com/sketch -->
    <title>SH-organizeAnything</title>
    <desc>Created with Sketch.</desc>
    <defs>
        <polygon id="path-1" points="0.0130920606 3.97903932e-13 358.993262 3.41060513e-13 359.585507 136 0.605337103 136"></polygon>
        <rect id="path-3" x="0" y="0" width="250.878187" height="158" rx="6.60000014"></rect>
        <rect id="path-5" x="0" y="0" width="250.878187" height="158" rx="6.60000014"></rect>
        <rect id="path-7" x="0" y="0" width="250.878187" height="158" rx="6.60000014"></rect>
        <rect id="path-9" x="0" y="-1.74998904e-13" width="62.7195467" height="62.5600014" rx="3"></rect>
    </defs>
    <g id="SUPER-HOME" stroke="none" stroke-width="1" fill="none" fill-rule="evenodd">
        <g id="SH-organizeAnything">
            <mask id="mask-2" fill="white">
                <use xlink:href="#path-1"></use>
            </mask>
            <use id="Mask" fill="#F7F0FA" transform="translate(179.792754, 68.000000) rotate(-180.000000) translate(-179.792754, -68.000000) " xlink:href="#path-1"></use>
            <g id="board-big" mask="url(#mask-2)">
                <g transform="translate(46.912181, 16.000000)">
                    <g id="board-background" stroke-width="1" fill="none">
                        <g id="board-purple">
                            <g>
                                <mask id="mask-4" fill="white">
                                    <use xlink:href="#path-3"></use>
                                </mask>
                                <use id="Mask" fill="#EB5A46" xlink:href="#path-3"></use>
                                <g id="Group-3" mask="url(#mask-4)">
                                    <mask id="mask-6" fill="white">
                                        <use xlink:href="#path-5"></use>
                                    </mask>
                                    <use id="board-color" fill="#C377E0" xlink:href="#path-5"></use>
                                </g>
                            </g>
                        </g>
                    </g>
                    <rect id="boardtitle" fill="#FFFFFF" opacity="0.3" x="8.95993525" y="13.1666667" width="103.039255" height="8.77777778" rx="4.38888889"></rect>
                    <g id="list-1" fill="none" transform="translate(8.959935, 35.111111)" stroke-width="1">
                        <g>
                            <g id="list">
                                <rect id="listbody1" fill="#E2E4E6" x="0" y="0" width="72.4114301" height="101.200002" rx="3.30000007"></rect>
                                <g id="card" transform="translate(4.525714, 70.400002)">
                                    <rect id="card1" fill="#FFFFFF" x="0" y="0" width="63.3600014" height="17.6000004" rx="2.75000006"></rect>
                                    <rect id="cardtitle1" fill="#D6DADC" x="4.52571438" y="6.60000014" width="27.1542863" height="4.4000001" rx="2.20000005"></rect>
                                </g>
                                <rect id="cardtitle1" fill="#838C91" opacity="0.25" x="7.92000017" y="7.70000017" width="27.1542863" height="4.4000001" rx="2.20000005"></rect>
                            </g>
                            <g id="card" transform="translate(4.525714, 17.600000)">
                                <rect id="card1" fill="#FFFFFF" x="0" y="0" width="63.3600014" height="17.6000004" rx="2.75000006"></rect>
                                <rect id="cardtitle1" fill="#D6DADC" x="4.52571438" y="6.60000014" width="41.8628581" height="4.4000001" rx="2.20000005"></rect>
                            </g>
                            <g id="card" transform="translate(4.525714, 39.600001)">
                                <rect id="card1" fill="#FFFFFF" x="0" y="0" width="63.3600014" height="26.4000006" rx="2.75000006"></rect>
                                <rect id="cardtitle1" fill="#D6DADC" x="4.52571438" y="6.60000014" width="41.8628581" height="4.4000001" rx="2.20000005"></rect>
                                <rect id="cardtitle1" fill="#D6DADC" x="4.52571438" y="15.4000003" width="23.7600005" height="4.4000001" rx="2.20000005"></rect>
                            </g>
                        </g>
                    </g>
                    <ellipse id="Oval-5" fill="#FF80CE" cx="69.3484419" cy="117" rx="4.07932011" ry="4"></ellipse>
                    <g id="list-2" fill="none" transform="translate(89.599352, 35.111111)" stroke-width="1">
                        <g>
                            <g id="list">
                                <rect id="listbody1" fill="#E2E4E6" x="0" y="0" width="72.4114301" height="57.2000012" rx="3.30000007"></rect>
                                <rect id="cardtitle1" fill="#838C91" opacity="0.25" x="7.92000017" y="7.70000017" width="27.1542863" height="4.4000001" rx="2.20000005"></rect>
                                <rect id="cardtitle1" fill="#838C91" opacity="0.25" x="39.6000009" y="7.70000017" width="9.05142877" height="4.4000001" rx="2.20000005"></rect>
                            </g>
                            <g id="card" transform="translate(4.525714, 17.600000)">
                                <rect id="card1" fill="#FFFFFF" x="0" y="0" width="63.3600014" height="26.4000006" rx="2.75000006"></rect>
                                <rect id="cardtitle1" fill="#D6DADC" x="4.52571438" y="6.60000014" width="41.8628581" height="4.4000001" rx="2.20000005"></rect>
                                <rect id="cardtitle1" fill="#D6DADC" x="4.52571438" y="15.4000003" width="23.7600005" height="4.4000001" rx="2.20000005"></rect>
                            </g>
                        </g>
                    </g>
                    <ellipse id="Oval-5" fill="#7BC86C" cx="149.915014" cy="73" rx="4.07932011" ry="4"></ellipse>
                    <ellipse id="Oval-5" fill="#298FCA" cx="139.716714" cy="73" rx="4.07932011" ry="4"></ellipse>
                    <g id="list-3" stroke-width="1" fill="none" transform="translate(170.238770, 35.111111)">
                        <g transform="translate(0.000000, 0.000000)">
                            <g id="list">
                                <rect id="listbody1" fill="#E2E4E6" x="0" y="0" width="71.679482" height="85" rx="3.30000007"></rect>
                                <rect id="cardtitle1" fill="#838C91" opacity="0.25" x="7.83994334" y="7.68055556" width="8.95993525" height="4.38888889" rx="2.19444444"></rect>
                                <rect id="cardtitle1" fill="#838C91" opacity="0.25" x="21.2798462" y="7.68055556" width="17.9198705" height="4.38888889" rx="2.19444444"></rect>
                            </g>
                            <g id="card" transform="translate(4.479968, 17.555556)" fill="#838C91" opacity="0.375113225">
                                <rect id="card1" x="0" y="0" width="62.7195467" height="52" rx="2.75000006"></rect>
                            </g>
                        </g>
                    </g>
                    <g id="shadow" stroke-width="1" fill="none">
                        <mask id="mask-8" fill="white">
                            <use xlink:href="#path-7"></use>
                        </mask>
                        <g id="board-color"></g>
                        <rect id="Mask" fill="#000000" opacity="0.1" mask="url(#mask-8)" transform="translate(222.956298, 73.948239) rotate(7.000000) translate(-222.956298, -73.948239) " x="191.596525" y="42.6682385" width="62.7195467" height="62.5600014" rx="3"></rect>
                    </g>
                    <g id="card" stroke-width="1" fill="none" transform="translate(239.613014, 64.308569) rotate(13.000000) translate(-239.613014, -64.308569) translate(208.113014, 32.808569)">
                        <rect id="card1" fill="#FFFFFF" x="0" y="45" width="62.7195467" height="17.5555556" rx="2.75000006"></rect>
                        <mask id="mask-10" fill="white">
                            <use xlink:href="#path-9"></use>
                        </mask>
                        <use id="Mask" fill="#FFFFFF" xlink:href="#path-9"></use>
                        <g id="image" mask="url(#mask-10)">
                            <g transform="translate(0.000000, -2.000000)">
                                <rect id="card1" fill="#B7DDB0" x="8.52651283e-14" y="-3.55271368e-14" width="62.7195467" height="45"></rect>
                                <g id="plant" stroke-width="1" fill="none" transform="translate(9.179562, 5.455620)">
                                    <path d="M13.0430002,0.340862255 C14.4351038,3.34489382 16.102589,5.28096015 18.0454558,6.14906125 C25.0414889,8.74326714 21.3571349,14.0894714 25.5838115,19.1935276 C28.4837235,22.6954075 25.9709383,21.7643652 18.0454558,16.4004008 L13.0430002,0.340862255 Z" id="Path-18" fill="#49852E"></path>
                                    <path d="M29.3705919,19.4713845 C21.7606769,14.4725439 16.2660179,7.98208235 12.8866148,0 C12.1610663,6.49046151 13.6218982,12.980923 17.2691105,19.4713845 L29.3705919,19.4713845 Z" id="Path-17" fill="#5AAC44"></path>
                                    <path d="M17.3475958,22.3472607 C23.3480667,18.1012859 27.5974443,12.7091038 30.0957286,6.17071445 C30.8690205,11.3916305 29.8768623,16.6727459 27.1192539,22.0140607 L17.3475958,22.3472607 Z" id="Path-17" fill="#5AAC44"></path>
                                    <g id="bowl" transform="translate(13.235453, 19.127290)">
                                        <path d="M0,0 L19.5884711,0 L19.5884711,10.3246133 C19.5884711,13.1876576 17.2675151,15.5086136 14.4044708,15.5086136 L5.18400035,15.5086136 C2.32095601,15.5086136 2.51024733e-15,13.1876576 8.8817842e-16,10.3246133 L0,0 Z" id="Rectangle-18" fill="#FFFFFF"></path>
                                        <rect id="Rectangle-19" fill="#49852E" x="0" y="0" width="19.5884711" height="3.26831916"></rect>
                                    </g>
                                </g>
                            </g>
                        </g>
                        <rect id="cardtitle1" fill="#D6DADC" mask="url(#mask-10)" x="4.47996762" y="51.5833333" width="26.8798057" height="4.38888889" rx="2.19444444"></rect>
                    </g>
                </g>
            </g>
        </g>
    </g>
</svg>